<?xml version="1.0" encoding="utf-8"?>
<!-- Generator: Adobe Illustrator 30.5.1, SVG Export Plug-In . SVG Version: 9.03 Build 0)  -->
<svg version="1.0" id="Layer_1" xmlns="http://www.w3.org/2000/svg" xmlns:xlink="http://www.w3.org/1999/xlink" x="0px" y="0px"
	 viewBox="0 0 1601.33 729.38" style="enable-background:new 0 0 1601.33 729.38;" xml:space="preserve">
<style type="text/css">
	.st0{fill:#FFFFCC;}
	.st1{clip-path:url(#SVGID_00000036231078615091956710000001779300796763528115_);}
</style>
<g>
	<g transform="translate(806.483334, 834.512308)">
	</g>
</g>
<g>
	<g transform="translate(845.178643, 834.512308)">
		<g>
			<path class="st0" d="M350-750.26h-45.56v-62.76h-34.39v62.76h-36.54v30.09h36.54v146.58c0,33.96,21.06,45.99,55.45,45.99
				c6.88,0,15.91-0.43,24.5-0.86v-29.23h-20.2c-19.77,0-25.36-7.31-25.36-18.92v-143.57H350V-750.26z"/>
		</g>
	</g>
</g>
<g>
	<g transform="translate(922.875322, 834.512308)">
		<g>
			<path class="st0" d="M381.06-755.41c-30.09,0-53.3,15.04-67.92,35.68v-114.78h-34.39v306.06h34.39v-125.52
				c0-49,32.24-70.49,61.04-70.49c31.81,0,50.72,15.05,50.72,49.43v146.58h34.39v-150.02C459.29-727.48,430.49-755.41,381.06-755.41
				z"/>
		</g>
	</g>
</g>
<g>
	<g transform="translate(1074.400329, 834.512308)">
		<g>
			<path class="st0" d="M421.68-523.29c52.87,0,84.68-30.95,95.43-72.65h-35.68c-7.74,24.93-27.51,41.27-58.89,41.27
				c-38.69,0-64.91-22.78-68.35-72.65H522.7v-12.04c0-63.61-35.68-116.06-101.88-116.06c-61.47,0-102.31,46.42-102.31,116.06
				C318.51-567.57,361.07-523.29,421.68-523.29z M355.05-658.27c5.59-43.84,30.95-65.77,65.77-65.77
				c39.55,0,61.47,29.23,64.91,65.77H355.05z"/>
		</g>
	</g>
</g>
<g transform="matrix(1, 0, 0, 1, 41, 642)">
	<g>
		<defs>
			<rect id="SVGID_1_" x="-41" y="-592.62" width="1601.33" height="680"/>
		</defs>
		<clipPath id="SVGID_00000083806906153861728780000014430546757749750404_">
			<use xlink:href="#SVGID_1_"  style="overflow:visible;"/>
		</clipPath>
		<g style="clip-path:url(#SVGID_00000083806906153861728780000014430546757749750404_);">
			<g>
				<g transform="translate(1.362855, 385.162825)">
				</g>
			</g>
			<g>
				<g transform="translate(51.910291, 385.162825)">
					<g>
						<path class="st0" d="M127.24-706.1c-36.93,0-59.55,19.39-71.08,46.16v-42.46H-0.15v238.17H58v-120.93
							c0-45.23,25.85-66.47,68.78-66.47h14.77v-53.54C136.47-706.1,132.31-706.1,127.24-706.1z"/>
					</g>
				</g>
			</g>
			<g>
				<g transform="translate(149.53301, 385.162825)">
					<g>
						<path class="st0" d="M140.39-458.7c57.24,0,98.32-31.39,110.78-79.39h-56.31c-8.31,21.23-26.31,34.16-54.01,34.16
							c-33.69,0-57.23-19.39-61.85-61.39h178.17v-13.85c0-75.7-44.77-128.78-117.7-128.78c-70.62,0-117.7,49.85-117.7,124.62
							C21.77-507.16,70.23-458.7,140.39-458.7z M79.46-605.94c5.54-38.77,28.62-56.78,59.55-56.78c34.61,0,55.39,23.08,60,56.78
							H79.46z"/>
					</g>
				</g>
			</g>
			<g>
				<g transform="translate(321.930941, 385.162825)">
					<g>
						<path class="st0" d="M147.55-730.1v-54.46h-57.7v54.46H147.55z M148.01-464.23V-702.4H89.85v238.17H148.01z"/>
					</g>
				</g>
			</g>
			<g>
				<g transform="translate(376.627231, 385.162825)">
					<g>
						<path class="st0" d="M238.71-707.95c-33.7,0-59.08,17.08-74.31,39.7v-34.16h-56.31v238.17h58.16v-133.4
							c0-42.46,27.7-60.01,53.08-60.01c29.54,0,44.77,14.77,44.77,45.23v148.17h58.16v-157.86
							C322.26-678.86,288.56-707.95,238.71-707.95z"/>
					</g>
				</g>
			</g>
			<g>
				<g transform="translate(548.332782, 385.162825)">
					<g>
						<path class="st0" d="M335.18-671.48c-16.16-23.08-40.62-36.46-73.39-36.46c-66.01,0-107.09,48.93-107.09,124.62
							S195.78-458.7,261.79-458.7c34.16,0,59.08-14.77,75.23-38.77v33.23h56.31v-328.64h-58.16V-671.48z M275.17-506.7
							c-37.39,0-60.93-24.46-60.93-74.78s23.54-78.47,60.93-78.47c37.85,0,61.39,26.31,61.39,76.62
							C336.56-533.01,313.02-506.7,275.17-506.7z"/>
					</g>
				</g>
			</g>
			<g>
				<g transform="translate(730.423772, 385.162825)">
					<g>
						<path class="st0" d="M334.02-458.7c57.24,0,98.32-31.39,110.78-79.39h-56.31c-8.31,21.23-26.31,34.16-54.01,34.16
							c-33.69,0-57.23-19.39-61.85-61.39H450.8v-13.85c0-75.7-44.77-128.78-117.7-128.78c-70.62,0-117.7,49.85-117.7,124.62
							C215.4-507.16,263.87-458.7,334.02-458.7z M273.09-605.94c5.54-38.77,28.62-56.78,59.55-56.78c34.61,0,55.39,23.08,60,56.78
							H273.09z"/>
					</g>
				</g>
			</g>
			<g>
				<g transform="translate(902.821727, 385.162825)">
					<g>
						<path class="st0" d="M391.49-458.7c57.24,0,98.32-31.39,110.78-79.39h-56.31c-8.31,21.23-26.31,34.16-54.01,34.16
							c-33.69,0-57.23-19.39-61.85-61.39h178.17v-13.85c0-75.7-44.77-128.78-117.7-128.78c-70.62,0-117.7,49.85-117.7,124.62
							C272.86-507.16,321.33-458.7,391.49-458.7z M330.56-605.94c5.54-38.77,28.62-56.78,59.55-56.78c34.61,0,55.39,23.08,60,56.78
							H330.56z"/>
					</g>
				</g>
			</g>
			<g>
				<g transform="translate(1075.219634, 385.162825)">
					<g>
						<path class="st0" d="M468.34-706.1c-36.93,0-59.55,19.39-71.08,46.16v-42.46h-56.31v238.17h58.16v-120.93
							c0-45.23,25.85-66.47,68.78-66.47h14.77v-53.54C477.57-706.1,473.42-706.1,468.34-706.1z"/>
					</g>
				</g>
			</g>
		</g>
	</g>
</g>
</svg>
